<?xml version="1.0" encoding="UTF-8" standalone="no"?>
<svg
   xmlns:dc="http://purl.org/dc/elements/1.1/"
   xmlns:cc="http://creativecommons.org/ns#"
   xmlns:rdf="http://www.w3.org/1999/02/22-rdf-syntax-ns#"
   xmlns:svg="http://www.w3.org/2000/svg"
   xmlns="http://www.w3.org/2000/svg"
   xmlns:sodipodi="http://sodipodi.sourceforge.net/DTD/sodipodi-0.dtd"
   xmlns:inkscape="http://www.inkscape.org/namespaces/inkscape"
   inkscape:version="1.0 (1.0+r73+1)"
   sodipodi:docname="tbl_fundo.svg"
   id="svg62"
   preserveAspectRatio="xMidYMid meet"
   viewBox="0 0 320.000000 320.000000"
   height="320.000000pt"
   width="320.000000pt"
   version="1.0">
  <metadata
     id="metadata68">
    <rdf:RDF>
      <cc:Work
         rdf:about="">
        <dc:format>image/svg+xml</dc:format>
        <dc:type
           rdf:resource="http://purl.org/dc/dcmitype/StillImage" />
      </cc:Work>
    </rdf:RDF>
  </metadata>
  <defs
     id="defs66" />
  <sodipodi:namedview
     inkscape:current-layer="svg62"
     inkscape:window-maximized="1"
     inkscape:window-y="22"
     inkscape:window-x="0"
     inkscape:cy="213.33333"
     inkscape:cx="213.33333"
     inkscape:zoom="1.3054688"
     showgrid="false"
     id="namedview64"
     inkscape:window-height="710"
     inkscape:window-width="1366"
     inkscape:pageshadow="2"
     inkscape:pageopacity="0"
     guidetolerance="10"
     gridtolerance="10"
     objecttolerance="10"
     borderopacity="1"
     bordercolor="#666666"
     pagecolor="#ffffff" />
  <g
     style="fill:#ffffff"
     id="g60"
     stroke="none"
     fill="#000000"
     transform="translate(0.000000,320.000000) scale(0.100000,-0.100000)">
    <path
       style="fill:#ffffff"
       id="path2"
       d="M675 2798 c-85 -31 -145 -98 -145 -162 0 -51 28 -113 66 -147 40 -37 114 -62 161 -56 90 13 101 18 156 75 39 41 45 56 46 105 3 127 -156 231 -284 185z" />
    <path
       style="fill:#ffffff"
       id="path4"
       d="M1785 2698 c-3 -7 -4 -548 -3 -1203 l3 -1190 675 0 675 0 0 1200 0 1200 -673 3 c-533 2 -674 0 -677 -10z m1340 -1193 l0 -1190 -665 0 -665 0 -3 1180 c-1 649 0 1186 3 1193 3 10 142 12 667 10 l663 -3 0 -1190z" />
    <path
       style="fill:#ffffff"
       id="path6"
       d="M1884 2583 c-21 -19 -23 -25 -12 -43 19 -30 33 -33 158 -36 63 -1 159 -5 212 -9 89 -5 99 -4 118 15 24 24 24 30 7 54 -16 22 -122 35 -320 39 -132 3 -139 2 -163 -20z" />
    <path
       style="fill:#ffffff"
       id="path8"
       d="M2722 2583 c-18 -7 -33 -39 -26 -58 4 -8 15 -20 26 -26 16 -8 24 -6 43 15 26 28 24 50 -6 66 -10 6 -19 10 -21 9 -2 0 -9 -3 -16 -6z" />
    <path
       style="fill:#ffffff"
       id="path10"
       d="M2860 2570 c-26 -26 -25 -34 6 -59 19 -15 31 -18 44 -11 35 19 35 61 -1 80 -24 13 -26 13 -49 -10z" />
    <path
       style="fill:#ffffff"
       id="path12"
       d="M3018 2568 c-26 -22 -29 -47 -8 -68 25 -25 35 -25 60 0 11 11 20 25 20 30 0 12 -37 50 -48 50 -5 0 -15 -6 -24 -12z" />
    <path
       style="fill:#ffffff"
       id="path14"
       d="M2462 2563 c-18 -7 -33 -39 -26 -58 4 -8 15 -20 26 -26 16 -9 24 -6 44 16 21 23 23 29 12 43 -24 31 -33 35 -56 25z" />
    <path
       style="fill:#ffffff"
       id="path16"
       d="M1977 2193 c-47 -5 -75 -40 -57 -72 6 -12 14 -21 18 -22 72 -5 401 -4 413 2 35 18 33 61 -3 80 -19 10 -300 19 -371 12z" />
    <path
       style="fill:#ffffff"
       id="path18"
       d="M2450 2160 c-25 -25 -25 -35 0 -60 11 -11 25 -20 30 -20 12 0 50 37 50 48 0 9 -25 33 -47 46 -7 4 -21 -2 -33 -14z" />
    <path
       style="fill:#ffffff"
       id="path20"
       d="M2702 2143 c-18 -7 -33 -39 -26 -58 12 -29 46 -37 189 -41 l143 -5 21 27 c23 29 16 58 -16 68 -25 7 -295 15 -311 9z" />
    <path
       style="fill:#ffffff"
       id="path22"
       d="M1967 1921 c-42 -5 -63 -12 -73 -26 -18 -24 -18 -31 4 -52 15 -16 39 -18 232 -16 118 1 218 2 222 2 4 1 12 10 18 21 15 28 -2 56 -42 68 -36 11 -268 13 -361 3z" />
    <path
       style="fill:#ffffff"
       id="path24"
       d="M2458 1898 c-26 -22 -29 -47 -8 -68 25 -25 35 -25 60 0 11 11 20 25 20 30 0 12 -37 50 -48 50 -5 0 -15 -6 -24 -12z" />
    <path
       style="fill:#ffffff"
       id="path26"
       d="M2830 1871 c-20 -4 -41 -11 -48 -15 -18 -11 -15 -43 6 -64 15 -15 34 -18 117 -17 105 1 139 12 149 48 2 10 -4 27 -15 38 -16 16 -32 19 -96 18 -43 -1 -94 -4 -113 -8z" />
    <path
       style="fill:#ffffff"
       id="path28"
       d="M1965 1641 c-38 -3 -75 -9 -81 -13 -19 -12 -23 -46 -9 -65 11 -15 31 -18 137 -20 68 -2 166 -4 218 -6 98 -4 123 1 134 28 17 45 -27 68 -139 70 -44 1 -105 4 -135 7 -30 3 -86 3 -125 -1z" />
    <path
       style="fill:#ffffff"
       id="path30"
       d="M2441 1614 c-16 -21 -18 -29 -9 -44 19 -29 50 -33 71 -9 22 27 21 35 -3 59 -26 26 -34 25 -59 -6z" />
    <path
       style="fill:#ffffff"
       id="path32"
       d="M2780 1603 c-87 -3 -125 -15 -140 -44 -7 -11 -3 -22 10 -37 19 -20 30 -21 181 -21 144 1 163 3 180 20 61 61 -18 89 -231 82z" />
    <path
       style="fill:#ffffff"
       id="path34"
       d="M1919 1278 c-51 -41 -17 -87 64 -89 28 -1 90 -3 137 -5 47 -2 95 -2 107 1 44 10 52 64 13 85 -10 5 -83 12 -162 15 -109 5 -147 3 -159 -7z" />
    <path
       style="fill:#ffffff"
       id="path36"
       d="M2340 1260 c-11 -11 -20 -24 -20 -30 0 -13 37 -50 50 -50 12 0 50 37 50 48 0 13 -15 29 -37 41 -19 10 -26 8 -43 -9z" />
    <path
       style="fill:#ffffff"
       id="path38"
       d="M2953 1126 c-61 -57 -106 -129 -141 -226 -49 -137 -84 -258 -84 -292 -1 -49 -11 -48 -34 5 -10 23 -33 58 -51 77 -18 19 -33 38 -33 42 0 13 -61 40 -76 34 -25 -10 -15 -44 27 -83 23 -23 60 -78 88 -133 55 -108 70 -123 100 -96 16 14 20 30 19 70 -1 32 13 98 35 177 65 222 123 340 199 400 26 22 38 38 36 52 -5 36 -24 30 -85 -27z" />
    <path
       style="fill:#ffffff"
       id="path40"
       d="M2010 1051 c-41 -3 -80 -9 -86 -13 -19 -12 -22 -43 -7 -64 12 -17 29 -19 159 -21 132 -1 147 0 165 18 10 10 19 24 19 29 0 22 -41 50 -72 50 -18 0 -49 2 -68 4 -19 2 -69 1 -110 -3z" />
    <path
       style="fill:#ffffff"
       id="path42"
       d="M2352 1053 c-18 -7 -33 -39 -26 -58 10 -24 41 -37 63 -26 51 28 18 102 -37 84z" />
    <path
       style="fill:#ffffff"
       id="path44"
       d="M1920 830 c-25 -25 -25 -42 -2 -63 15 -14 46 -17 158 -20 147 -4 179 3 188 36 14 53 -35 67 -237 67 -74 -1 -91 -4 -107 -20z" />
    <path
       style="fill:#ffffff"
       id="path46"
       d="M2362 813 c-38 -15 -34 -75 7 -86 42 -11 72 42 41 73 -21 21 -26 22 -48 13z" />
    <path
       style="fill:#ffffff"
       id="path48"
       d="M1975 611 c-22 -3 -46 -10 -52 -14 -19 -12 -15 -45 8 -68 16 -16 28 -19 57 -14 20 3 74 2 120 -4 129 -14 194 14 153 67 -12 17 -29 24 -62 26 -24 2 -75 6 -114 9 -38 3 -88 2 -110 -2z" />
    <path
       style="fill:#ffffff"
       id="path50"
       d="M2340 570 c-29 -29 -24 -47 16 -68 41 -22 77 35 44 68 -25 25 -35 25 -60 0z" />
    <path
       style="fill:#ffffff"
       id="path52"
       d="M875 2428 c-40 -22 -75 -62 -81 -94 -7 -38 23 -193 41 -213 11 -11 16 -10 34 8 18 18 21 33 21 104 0 80 1 84 25 95 38 18 100 15 124 -5 12 -10 26 -34 30 -54 12 -54 4 -176 -16 -217 -9 -20 -56 -76 -105 -124 -48 -48 -88 -94 -88 -102 0 -8 -61 -72 -135 -142 -128 -122 -135 -130 -145 -181 l-11 -53 -282 0 c-155 0 -277 -4 -271 -8 6 -4 23 -25 38 -47 14 -22 40 -60 56 -84 16 -25 34 -47 38 -50 5 -3 21 -27 36 -54 15 -26 31 -47 35 -47 3 0 15 -16 25 -35 10 -19 27 -43 36 -53 10 -10 29 -37 44 -60 l26 -42 528 0 c319 1 539 -3 554 -9 14 -5 35 -26 48 -45 12 -20 25 -36 30 -36 5 0 11 -8 15 -19 3 -10 16 -30 29 -43 12 -14 35 -46 50 -72 l27 -46 -751 -2 c-489 -2 -751 -6 -753 -13 -1 -6 42 -11 111 -13 l112 -3 0 -64 0 -64 -41 -13 c-41 -12 -119 -76 -119 -97 0 -22 30 -10 44 17 15 29 88 62 137 62 53 0 125 -31 143 -61 10 -17 22 -26 31 -23 11 5 9 13 -12 39 -31 38 -50 50 -110 65 l-43 11 0 64 0 65 520 0 520 0 0 -59 c0 -60 -7 -71 -46 -71 -43 0 -132 -95 -110 -117 7 -7 46 35 46 49 0 5 21 18 47 30 79 35 187 14 235 -46 23 -29 35 -13 14 19 -22 34 -68 61 -117 69 l-39 6 0 60 0 60 108 0 c60 0 111 3 115 6 5 6 -96 163 -113 174 -4 3 -19 24 -34 48 -14 23 -30 42 -35 42 -5 0 -14 13 -21 29 -9 23 -9 54 1 143 7 62 16 115 19 118 4 3 15 79 25 168 14 128 22 165 34 170 32 13 160 94 172 108 9 11 8 15 -4 20 -15 6 -60 -15 -114 -53 -17 -13 -35 -23 -40 -23 -22 -1 -63 -51 -63 -78 0 -16 -3 -44 -6 -61 l-6 -31 -180 0 -179 0 3 108 c2 59 6 113 8 121 8 24 -28 24 -57 1 -58 -44 -213 -202 -213 -216 0 -9 -11 -14 -30 -14 -16 0 -30 4 -30 8 0 5 28 31 63 59 63 52 265 251 311 309 24 29 26 40 28 155 l3 124 27 -45 c14 -25 30 -67 33 -95 10 -69 29 -110 59 -130 51 -34 126 10 126 74 -1 54 -24 140 -53 196 -36 72 -133 183 -202 232 -116 81 -270 124 -330 91z m-765 -1028 c0 -11 -3 -20 -8 -20 -4 0 -13 9 -20 20 -11 18 -10 20 8 20 13 0 20 -7 20 -20z m130 -20 l0 -40 -60 0 -60 0 0 40 0 40 60 0 60 0 0 -40z m100 0 l0 -40 -45 0 -45 0 0 40 0 40 45 0 45 0 0 -40z m120 0 l0 -40 -50 0 -50 0 0 40 0 40 50 0 50 0 0 -40z m88 0 c-9 -35 -14 -40 -39 -40 -27 0 -29 3 -29 40 0 40 0 40 39 40 l39 0 -10 -40z m262 0 c0 -29 -4 -40 -15 -40 -17 0 -18 4 -9 49 9 44 24 39 24 -9z m70 8 c7 -18 15 -36 18 -40 2 -5 -12 -8 -32 -8 -35 0 -36 1 -36 40 0 52 29 56 50 8z m270 22 c0 -5 -2 -10 -4 -10 -3 0 -8 5 -11 10 -3 6 -1 10 4 10 6 0 11 -4 11 -10z m120 -30 c0 -39 -1 -40 -36 -40 -40 0 -63 21 -64 58 0 20 5 22 50 22 l50 0 0 -40z m120 0 l0 -40 -50 0 -50 0 0 40 0 40 50 0 50 0 0 -40z m92 0 c-4 -39 -5 -40 -43 -40 -39 0 -39 0 -39 40 l0 40 43 0 43 0 -4 -40z m-1242 -95 c0 -32 -3 -35 -29 -35 -23 0 -34 8 -50 35 l-20 35 49 0 50 0 0 -35z m100 0 c0 -35 0 -35 -45 -35 -45 0 -45 0 -45 35 0 35 0 35 45 35 45 0 45 0 45 -35z m120 0 l0 -35 -50 0 -50 0 0 35 0 35 50 0 50 0 0 -35z m70 23 c0 -33 -14 -58 -31 -58 -15 0 -19 7 -19 35 0 31 3 35 25 35 14 0 25 -6 25 -12z m280 -23 c0 -31 -3 -35 -25 -35 -21 0 -25 5 -25 28 0 33 7 42 32 42 14 0 18 -8 18 -35z m120 0 l0 -35 -50 0 -50 0 0 35 0 35 50 0 50 0 0 -35z m340 15 c0 -20 -1 -20 -25 -4 -14 9 -25 18 -25 20 0 2 11 4 25 4 18 0 25 -5 25 -20z m120 -16 l0 -35 -52 3 c-52 3 -53 4 -56 36 l-3 32 55 0 56 0 0 -36z m80 1 c0 -33 -2 -35 -35 -35 -33 0 -35 2 -35 35 0 33 2 35 35 35 33 0 35 -2 35 -35z m-500 -20 c10 -12 10 -15 -4 -15 -9 0 -16 7 -16 15 0 8 2 15 4 15 2 0 9 -7 16 -15z m-730 -50 c0 -8 -4 -15 -9 -15 -5 0 -11 7 -15 15 -3 9 0 15 9 15 8 0 15 -7 15 -15z m100 -25 l0 -40 -45 0 -45 0 0 40 0 40 45 0 45 0 0 -40z m120 0 l0 -40 -50 0 -50 0 0 40 0 40 50 0 50 0 0 -40z m45 8 c-11 -52 -25 -57 -25 -10 0 32 4 42 16 42 12 0 14 -7 9 -32z m305 -8 l0 -40 -40 0 c-39 0 -40 1 -34 28 10 49 13 52 44 52 28 0 30 -2 30 -40z m120 0 l0 -40 -50 0 -50 0 0 40 0 40 50 0 50 0 0 -40z m82 23 c10 -9 18 -27 18 -40 0 -20 -5 -23 -40 -23 l-40 0 0 40 c0 34 3 40 22 40 12 0 30 -7 40 -17z m378 -16 c0 -19 -3 -37 -6 -40 -6 -5 -64 58 -64 69 0 2 16 4 35 4 33 0 35 -2 35 -33z m70 -7 c0 -38 -2 -40 -30 -40 -28 0 -30 2 -30 40 0 38 2 40 30 40 28 0 30 -2 30 -40z m-1120 -96 c0 -43 -17 -42 -43 4 l-19 32 31 0 c29 0 31 -2 31 -36z m120 1 l0 -35 -50 0 -50 0 0 35 0 35 50 0 50 0 0 -35z m27 3 c-3 -7 -5 -2 -5 12 0 14 2 19 5 13 2 -7 2 -19 0 -25z m323 -3 l0 -35 -48 0 -48 0 4 35 c4 34 5 35 48 35 44 0 44 0 44 -35z m120 0 l0 -35 -50 0 -50 0 0 35 0 35 50 0 50 0 0 -35z m100 0 c0 -34 -1 -35 -40 -35 -39 0 -40 1 -40 35 0 34 1 35 40 35 39 0 40 -1 40 -35z m86 12 c39 -45 38 -47 -15 -47 l-51 0 0 35 c0 30 3 35 23 35 13 0 32 -10 43 -23z m334 -6 c0 -26 -14 -41 -41 -41 -5 0 -9 16 -9 35 0 31 3 35 25 35 21 0 25 -5 25 -29z m-990 -81 c0 -17 -7 -20 -50 -20 -43 0 -50 3 -50 20 0 17 7 20 50 20 43 0 50 -3 50 -20z m57 0 l26 -20 -32 0 c-24 0 -31 4 -31 20 0 11 3 20 6 20 3 0 17 -9 31 -20z m293 0 c0 -17 -7 -20 -50 -20 -43 0 -50 3 -50 20 0 17 7 20 50 20 43 0 50 -3 50 -20z m120 0 c0 -17 -7 -20 -50 -20 -43 0 -50 3 -50 20 0 17 7 20 50 20 43 0 50 -3 50 -20z m100 0 c0 -17 -7 -20 -40 -20 -33 0 -40 3 -40 20 0 17 7 20 40 20 33 0 40 -3 40 -20z m120 0 c0 -17 -7 -20 -50 -20 -43 0 -50 3 -50 20 0 17 7 20 50 20 43 0 50 -3 50 -20z m79 -17 c2 -2 -10 -3 -27 -3 -25 0 -32 4 -32 20 0 20 1 20 28 3 15 -9 29 -18 31 -20z m161 17 c0 -16 -7 -20 -31 -20 l-31 0 23 20 c31 25 39 25 39 0z m40 0 c0 -11 -7 -20 -15 -20 -8 0 -15 9 -15 20 0 11 7 20 15 20 8 0 15 -9 15 -20z m-740 -5 c0 -9 -9 -15 -22 -15 -22 1 -23 1 -4 15 25 19 26 19 26 0z" />
    <path
       style="fill:#ffffff"
       id="path54"
       d="M943 2310 c-21 -9 -23 -16 -23 -84 0 -124 -41 -186 -158 -242 -84 -40 -106 -50 -139 -59 -66 -18 -94 -83 -52 -121 40 -36 182 -10 244 45 11 10 25 20 32 22 30 10 148 138 168 184 27 59 40 215 21 239 -15 19 -65 27 -93 16z" />
    <path
       style="fill:#ffffff"
       id="path56"
       d="M344 468 c-76 -20 -108 -95 -64 -151 62 -78 210 -37 210 57 0 58 -82 111 -146 94z" />
    <path
       style="fill:#ffffff"
       id="path58"
       d="M1393 453 c-18 -9 -33 -23 -33 -30 0 -7 -4 -13 -10 -13 -5 0 -10 -14 -10 -30 0 -33 35 -74 72 -86 36 -11 86 6 112 37 33 39 33 61 -1 98 -35 38 -86 47 -130 24z" />
  </g>
</svg>
